<?xml version="1.0" encoding="utf-8"?>
<!-- Generator: Adobe Illustrator 24.0.1, SVG Export Plug-In . SVG Version: 6.00 Build 0)  -->
<svg version="1.1" id="Layer_1" xmlns="http://www.w3.org/2000/svg" xmlns:xlink="http://www.w3.org/1999/xlink" x="0px" y="0px"
	 viewBox="0 0 200 200" style="enable-background:new 0 0 200 200;" xml:space="preserve">
<style type="text/css">
	.st0{fill:#d4351c;}
</style>
<path class="st0" d="M196.73,31.76L168.24,3.27c-3.03-3.03-7.95-3.03-10.98,0L100,60.54L42.74,3.27c-3.03-3.03-7.95-3.03-10.98,0
	L3.27,31.76c-3.03,3.03-3.03,7.95,0,10.98L60.54,100L3.27,157.26c-3.03,3.03-3.03,7.95,0,10.98l28.48,28.48
	c3.03,3.03,7.95,3.03,10.98,0L100,139.46l57.26,57.26c3.03,3.03,7.95,3.03,10.98,0l28.48-28.48c3.03-3.03,3.03-7.95,0-10.98
	L139.46,100l57.26-57.26C199.76,39.71,199.76,34.79,196.73,31.76z"/>
</svg>
